<?xml version="1.0" encoding="UTF-8" standalone="no"?>
<!DOCTYPE svg PUBLIC "-//W3C//DTD SVG 1.1//EN" "http://www.w3.org/Graphics/SVG/1.1/DTD/svg11.dtd">
<svg width="100%" height="100%" viewBox="0 0 256 315" version="1.1"
    xmlns="http://www.w3.org/2000/svg" xmlns:xlink="http://www.w3.org/1999/xlink"
    xml:space="preserve" xmlns:serif="http://www.serif.com/"
    style="fill-rule:evenodd;clip-rule:evenodd;stroke-linejoin:round;stroke-miterlimit:2;">
    <g>
        <path d="M133.16,90.151C146.107,87.94 167.684,73.733 190.278,76.023C200.529,76.45 229.304,80.164 247.781,107.209C246.292,108.132 213.446,127.253 213.803,167.031C214.245,214.61 255.542,230.443 256,230.645C255.651,231.761 249.401,253.208 234.243,275.361C221.139,294.514 207.538,313.596 186.114,313.992C165.062,314.379 158.293,301.508 134.225,301.508C110.164,301.508 102.643,313.596 82.715,314.379C62.035,315.162 46.287,293.669 33.074,274.586C6.075,235.553 -14.558,164.286 13.147,116.18C26.91,92.291 51.506,77.163 78.203,76.775C97.696,76.403 116.139,89.334 128.566,90.371C127.281,72.032 122.273,55.135 114.957,39.131C114.747,38.674 114.733,38.15 114.918,37.682C115.103,37.213 115.472,36.841 115.938,36.652C119.499,35.203 127.528,31.937 132.285,30.003C132.925,29.743 133.658,29.901 134.134,30.401C134.61,30.901 134.731,31.641 134.441,32.267C133.399,35.386 132.68,39.141 132.213,43.32C135.364,35.867 139.693,29.13 144.278,23.828C155.63,10.546 174.766,0.636 190.592,0C192.608,18.408 185.218,36.909 174.239,50.199C164.149,62.419 148.114,72.132 131.893,72.567C132.207,78.561 132.669,84.541 133.16,90.151Z"/>
    </g>
</svg>
